Patient4_TMGait_0pt7_01_right_45_EMG.mot
version=1
nRows=23
nColumns=33
inDegrees=no
endheader
time	1LAddLong	2LGlutMax	3LGlutMed	4LIliopsoas	5LSemiMemb	6LBicFemLong	7LRecFem	8LVastMed	9LVastLat	10LGasMed	11LTibAnt	12lTibPost	13LPeroneusLong	14LSol	15LExtDigLong	16LFlexDigLong	17RAddLong	18RGlutMax	19RGlutMed	20RIliopsoas	21RSemiMemb	22RBicFemLong	23RRecFem	24RVastMed	25RVastLat	26RGasMed	27RTibAnt	28RTibPost	29RPeroneusLong	30RSol	31RExtDigLong	32RFlexDigLong
51.59	0.035858	-0.17044	-0.12863	0.013123	0.083008	-0.029449	0.15747	0.015717	-0.02594	-0.065155	0.008392	0.072327	0.11414	-0.40878	-0.53268	-0.015717	-0.10605	-0.27145	0.36575	0.080414	-0.007324	0.037079	-0.063324	0.025787	-0.015106	-0.010986	-0.055084	0.000916	-0.097809	0.004272	-0.003052	-0.012817
51.591	0.029144	-0.16129	0.016937	0.005188	0.10681	-0.016327	0.14221	0.017242	-0.11078	-0.028076	0.039063	0.070343	0.28427	-0.48599	-0.20508	-0.009613	-0.16129	-0.3241	0.12863	0.14847	-0.001831	0.044708	-0.010834	0.006561	0.011292	-0.007629	-0.033875	0	-0.011902	0.069427	-0.004272	-0.012512
51.592	0.027161	-0.19745	0.021973	-0.007629	0.063782	0.010223	-0.002899	0.016937	-0.10635	-0.003052	-0.073395	0.069733	0.31494	-0.54565	0.42801	0.01358	-0.15915	-0.29053	0.016632	0.17883	0.012512	0.033875	0.007477	0.015717	0.010376	-0.00412	0.009308	0.000305	-0.019531	0.060883	-0.004883	-0.009155
51.593	0.023956	-0.2063	-0.084991	-0.020752	0.027161	0.051422	-0.061493	0.007172	0.027161	0.028839	-0.12253	0.071259	0.005188	-0.39963	0.29358	-0.002747	-0.1181	-0.25818	0.10315	0.13657	0.024872	0.047302	0.016174	0.001831	0.009918	0	0.10727	-0.003052	0.006409	0.025635	-0.003052	-0.00946
51.594	0.016937	-0.1709	-0.022583	-0.019684	0.014954	0.087891	0.065765	0.001373	0.11704	0.01709	-0.21454	0.074005	0.10452	-0.30609	0.33188	-0.006866	-0.090027	-0.28748	0.32593	0.068512	0.027161	0.046082	0.042267	-0.094147	0.002747	-0.00946	0.21927	0.001526	0.064697	0.004883	-0.000916	0.003357
51.595	0.017395	-0.17364	0.10544	0.007324	-0.004883	0.076294	0.15427	-0.010376	0.26535	0.019379	-0.09613	0.054626	0.15457	-0.21057	0.26504	0.003967	-0.065613	-0.29373	0.31296	0.12375	0.03067	0.062103	0.13489	-0.097809	-0.033875	-0.007629	0.37842	0.001678	0.021057	0.002747	-0.00412	-0.008698
51.596	0.008087	-0.13825	-0.018768	0.015106	-0.005493	0.018311	0.12619	-0.010834	0.28519	0.047913	0.019836	0.030823	0.092621	-0.1265	0.29923	0.001831	-0.050507	-0.23956	0.72876	0.012512	0.034637	0.046387	0.1088	-0.07309	-0.002899	-0.006561	0.42404	-0.000153	-0.00885	-0.030975	0.003357	0.003815
51.597	0.011292	-0.14725	-0.003052	-0.015564	0.001984	0.020599	0.067749	-0.010071	0.29526	0.05661	0.10895	0.073853	0.30548	-0.16846	0.28	0.000763	-0.040131	-0.20981	0.66254	-0.035095	0.021515	0.029602	0.1297	-0.074005	-0.010376	-0.005188	0.29892	-0.000458	0.072632	-0.064697	-0.003662	0.001068
51.598	0.014038	-0.1236	0.005646	-0.004883	0.006714	0.042267	0.078278	-0.007935	0.22369	0.066528	0.21729	0.059357	0.43152	-0.27725	0.25116	0.006409	-0.019684	-0.25345	-0.079803	-0.067291	0.018921	0.036316	0.1857	-0.11261	-0.001373	-0.012665	0.19821	0.005341	0.074921	-0.041046	-0.003357	0.002441
51.599	0.008698	-0.10208	-0.042419	0.002594	-0.023804	0.019531	0.098877	0.020447	0.080261	0.056915	0.18173	0.056	0.73059	-0.19745	0.39734	0.002747	-0.004883	-0.20676	-0.066528	-0.11704	0.015259	0.043335	0.14801	-0.18585	-0.001984	-0.013275	-0.11032	-0.006104	-0.005035	0.022736	-0.003662	-0.001678
51.6	0.007782	-0.10544	-0.098419	0.015717	-0.068054	-0.02533	0.12329	0.041504	0.01709	-0.034943	0.047302	0.065918	0.45181	-0.024109	0.44479	0.015717	0.002136	-0.21286	0.061035	-0.09079	0.026398	0.038147	0.055542	-0.16892	-0.011749	-0.011139	-0.26016	0.000458	-0.035706	0.035706	-0.001678	0.002594
51.601	0.057068	-0.13168	-0.086975	0.003662	-0.074158	-0.058289	0.11154	0.04364	-0.34317	-0.020142	-0.15808	0.053558	-0.16495	0.03952	0.44373	0.002289	0.008087	-0.21576	0.19424	-0.060883	0.012054	0.046997	0.017395	-0.23117	-0.024109	-0.00473	-0.24551	-0.001526	-0.015411	-0.018158	-0.003357	0.002136
51.602	0.02243	-0.097198	0.014648	0.016785	-0.065002	-0.013275	-0.12482	0.039673	-0.27741	0.019989	-0.10208	0.058441	-0.60852	0.062866	0.4541	0.00824	0.009155	-0.21378	0.42374	-0.093231	0.006714	0.031128	0.073547	-0.2475	-0.011902	0.000458	-0.21484	-0.001373	0.049286	-0.026093	-0.002594	-0.006866
51.603	-0.034943	-0.074615	0.031738	-0.002136	0.018921	0.031128	-0.14267	0.015106	0.028687	0.050812	0.029297	0.058594	-0.34119	0.056763	0.26443	-0.005798	0.003357	-0.22644	0.40863	-0.015717	0.002747	0.044861	0.11002	-0.25101	0.007019	0.000305	-0.17212	-0.000458	0.057983	-0.049591	-0.003357	-0.016327
51.604	-0.030823	-0.053558	-0.015106	0.011902	0.090942	0.016479	0.088043	-0.011139	0.15717	0.006561	-0.004425	0.034943	-0.5098	0.21316	0.37735	0.017242	0.006104	-0.19211	0.046844	0.037842	-0.000916	0.04364	0.057526	-0.18036	-0.00061	-0.010986	0.021515	-0.001221	-0.007172	-0.063019	-0.002594	-0.018616
51.605	-0.011139	-0.041962	-0.035248	-0.007935	0.003815	-0.050201	0.14786	-0.036316	0.15167	-0.007935	0.13534	0.036774	-0.50797	0.20508	-0.2243	0.004883	0.003662	-0.14191	0.39322	0.006256	0.002594	0.030365	0.028839	-0.15747	-0.007324	-0.001221	0.070343	-0.003815	0.009613	-0.031738	-0.004272	-0.013733
51.606	0.003357	0.014801	-0.033264	-0.005646	-0.035858	-0.13001	0.15808	-0.03952	0.001221	-0.022583	0.15411	0.039825	-0.1297	0.091705	-0.35309	-0.011139	0.015411	-0.1033	0.90256	0.000153	-0.007324	0.028839	0.12482	-0.12451	-0.010223	-0.012054	0.029755	0.011902	0.095978	0.000763	0.001068	-0.002289
51.607	0.001831	-0.023041	0.034485	-0.004272	-0.028687	-0.15961	0.13641	-0.030823	-0.000916	-0.049744	-0.079651	0.03418	0.21683	0.13489	-0.33417	-0.002594	0.013733	-0.11398	0.7695	0.060883	-0.006409	0.027313	0.52383	-0.073547	0.006866	-0.006104	-0.15884	-0.001678	0.15411	-0.041504	-0.003662	-0.005798
51.608	0.006409	-0.019684	0.075531	-0.008087	-0.038605	-0.067902	0.13168	-0.017853	0.030823	-0.026855	-0.22293	0.035095	0.16571	0.097198	-0.29511	-0.019226	0.006409	-0.14358	0.2562	0.13733	-0.012665	0.028687	0.72189	0.062714	0.018921	-0.011292	-0.18738	0.001831	0.10483	-0.07782	-0.000916	-0.012054
51.609	-0.013733	-0.06134	0.15366	0.018768	-0.007935	-0.046082	0.11643	-0.016479	0.004578	-0.021057	-0.063019	0.023499	0.023804	0.052185	-0.71457	-0.00473	0.005188	-0.15259	-0.16373	0.19928	-0.015259	0.017853	0.63828	0.15656	0.012817	0.000458	-0.39276	0.000763	0.007629	-0.07309	-0.002899	0.000153
51.61	-0.00885	-0.11337	-0.074158	0.041351	0.023346	-0.084991	0.093842	0.000763	0.00351	-0.068359	-0.015564	0.000916	-0.001984	0.078125	-0.80139	0.005951	0.008087	-0.094604	-0.22354	0.000458	-0.00946	0.019989	0.37033	0.12863	-0.004578	-0.003052	-0.21118	0.002747	0.010834	-0.10422	0.001678	-0.002136
51.611	0.015106	-0.12863	-0.15488	0.0177	0.055084	-0.11871	0.055695	0.003204	0.016479	-0.079803	-0.093384	-0.009308	0.019531	0.037842	-0.95123	0.006256	0.010223	-0.096741	-0.3273	-0.19302	-0.014343	0.028076	0.30472	0.014191	-0.004883	-0.001221	-0.050964	0.007629	0.032654	-0.045929	-0.001678	-0.005798
51.612	0.040894	-0.098114	-0.032043	-0.010071	-0.018921	-0.084076	0.053253	0.008698	0.000458	-0.015717	-0.12054	-0.007019	0.02121	-0.13565	-0.50964	0.008698	0.008392	-0.044708	-0.37094	-0.26276	-0.010681	0.028229	0.16266	-0.032196	-0.009766	-0.003052	0.10941	0.000153	0.039825	-0.005035	-0.006409	-0.001831
